<?xml version="1.0" encoding="utf-8"?>
<!-- Generator: Adobe Illustrator 26.5.0, SVG Export Plug-In . SVG Version: 6.00 Build 0)  -->
<svg version="1.1" id="Layer_1" xmlns="http://www.w3.org/2000/svg" xmlns:xlink="http://www.w3.org/1999/xlink" x="0px" y="0px"
	 viewBox="0 0 1234.12 856.16" style="enable-background:new 0 0 1234.12 856.16;" xml:space="preserve">
<style type="text/css">
	.st0{fill:#027AA7;}
	.st1{fill:#0178A7;}
	.st2{fill:#E99247;}
	.st3{fill:#EA9347;}
	.st4{fill:#F9B448;}
	.st5{fill:#FFFFFF;}
	
		.st6{opacity:0.6;clip-path:url(#SVGID_00000099658835547645494790000008257307680488866729_);fill:url(#SVGID_00000134240071629018206020000013074953146455259273_);}
	
		.st7{opacity:0.6;clip-path:url(#SVGID_00000099658835547645494790000008257307680488866729_);fill:url(#SVGID_00000141455177953578963090000003366553514155399343_);}
	
		.st8{opacity:0.6;clip-path:url(#SVGID_00000099658835547645494790000008257307680488866729_);fill:url(#SVGID_00000173150610557520275030000006647447803940282008_);}
	
		.st9{opacity:0.6;clip-path:url(#SVGID_00000099658835547645494790000008257307680488866729_);fill:url(#SVGID_00000183219520889321257190000008226492156311434888_);}
	.st10{opacity:0.6;fill:url(#SVGID_00000073003039174771982760000017112422162158492045_);}
	.st11{opacity:0.6;fill:url(#SVGID_00000060002799307390130070000014794976569324304284_);}
	.st12{opacity:0.6;fill:url(#SVGID_00000101800521102731008060000007126273448586689705_);}
	.st13{opacity:0.6;fill:url(#SVGID_00000161626131863141994170000017167426343348094381_);}
	
		.st14{opacity:0.6;clip-path:url(#SVGID_00000139996370636360173920000005307030944917431461_);fill:url(#SVGID_00000108272176818246396380000010848609789090072228_);}
	
		.st15{opacity:0.6;clip-path:url(#SVGID_00000139996370636360173920000005307030944917431461_);fill:url(#SVGID_00000029015863607168119060000003724348172669234618_);}
	
		.st16{opacity:0.6;clip-path:url(#SVGID_00000139996370636360173920000005307030944917431461_);fill:url(#SVGID_00000117644786847065047090000015586424075395097246_);}
	
		.st17{opacity:0.6;clip-path:url(#SVGID_00000139996370636360173920000005307030944917431461_);fill:url(#SVGID_00000010269529515681718020000012395003846401339817_);}
	.st18{fill:#D0D2D3;}
	
		.st19{opacity:0.6;clip-path:url(#SVGID_00000046304813915902337030000011567155197639029123_);fill:url(#SVGID_00000023966951627842996880000010319065219339602619_);}
	
		.st20{opacity:0.6;clip-path:url(#SVGID_00000046304813915902337030000011567155197639029123_);fill:url(#SVGID_00000000188872174355471930000017308555036318197908_);}
	
		.st21{opacity:0.6;clip-path:url(#SVGID_00000046304813915902337030000011567155197639029123_);fill:url(#SVGID_00000039117207687994407860000014082274838149620396_);}
	
		.st22{opacity:0.6;clip-path:url(#SVGID_00000046304813915902337030000011567155197639029123_);fill:url(#SVGID_00000003802827343179846920000001934864086815220868_);}
	.st23{fill:#414042;}
	
		.st24{opacity:0.6;clip-path:url(#SVGID_00000116229714057404607450000004364191059585538947_);fill:url(#SVGID_00000146498011100296963540000015808756840262038942_);}
	
		.st25{opacity:0.6;clip-path:url(#SVGID_00000116229714057404607450000004364191059585538947_);fill:url(#SVGID_00000081643732635628799870000009752393725006470291_);}
	
		.st26{opacity:0.6;clip-path:url(#SVGID_00000116229714057404607450000004364191059585538947_);fill:url(#SVGID_00000067226826069362055250000001701922254452865679_);}
	
		.st27{opacity:0.6;clip-path:url(#SVGID_00000116229714057404607450000004364191059585538947_);fill:url(#SVGID_00000165199617092875573630000010542252196880160938_);}
</style>
<g>
	<path class="st0" d="M699.51,338.37h-45.78v-95.64h45.78V338.37z"/>
	<path class="st0" d="M775.61,355.23c8.52,0,8.13-3.75,8.13-9.53v-16.28h44.79v8.78c0,9.21,0.79,22.49-22.59,29.88
		c-15.85,4.82-46.37,5.14-62.62,0c-19.22-6.11-21.21-17.89-21.4-25.38v-40.59c0-7.6,0-19.39,20.81-26.03
		c17.44-5.57,46.18-5.03,63.81,0.54c22.59,6.85,21.4,21.1,21.4,30.1v5.78h-44.19v-14.78c0-5.78,0.4-9.85-8.13-9.85
		c-7.53,0-8.72,3.96-8.72,9.75v48.2C766.89,351.59,768.08,355.23,775.61,355.23z"/>
	<path class="st0" d="M885.69,432.51c8.52,0,8.13-3.75,8.13-9.53v-16.28h44.79v8.78c0,9.21,0.79,22.49-22.59,29.88
		c-15.85,4.82-46.37,5.14-62.62,0c-19.22-6.11-21.21-17.89-21.4-25.38v-40.59c0-7.6,0-19.39,20.81-26.03
		c17.44-5.57,46.18-5.03,63.81,0.54c22.59,6.85,21.4,21.1,21.4,30.1v5.78h-44.19v-14.78c0-5.78,0.4-9.85-8.13-9.85
		c-7.53,0-8.72,3.96-8.72,9.75v48.2C876.97,428.86,878.16,432.51,885.69,432.51z"/>
	<path class="st0" d="M964.71,562.94l-41.82,0.11l-3.17-17.56c0,0-18.43,0-22.59,0l-3.17,17.46l-42.01,0.11l22.59-95.75h64.61
		L964.71,562.94z M916.75,529.42l-8.32-43.27l-8.32,43.16C900.11,529.63,916.75,529.42,916.75,529.42z"/>
	<path class="st0" d="M907.24,587.55c9.51,5.03,9.51,14.03,9.51,19.17v47.55c0,5.78,0.4,12.21-8.52,17.03
		c-11.49,6.21-32.11,5.68-41.22,5.68h-56.88v-95.64h49.35C871.17,581.34,895.35,581.13,907.24,587.55z M865.02,660.06
		c6.94-2.14,6.34-8.78,6.34-11.03v-38.66c-0.2-1.71,0.6-9.42-3.37-11.78c-2.97-1.82-7.33-1.93-13.67-1.93v63.94
		C854.32,660.6,862.84,660.7,865.02,660.06z"/>
</g>
<g>
	<path class="st1" d="M101.79,434.83H73.08c0.31-12.96,13.58-16.13,20.99-23.54c2.37-2.43,3.61-4.73,3.61-8.22
		c0-5.67-4.49-8.91-9.78-8.91c-7.16,0-9.97,5.73-9.84,12.15h-3.92c-0.19-8.97,4.49-15.45,13.95-15.45c7.6,0,13.52,4.17,13.52,12.27
		c0,7.29-5.29,11.83-10.96,15.51c-4.24,2.87-12.02,6.73-13.08,12.58h24.23V434.83z"/>
	<path class="st1" d="M139.54,413.28c0,10.21-2.49,22.49-15.2,22.49c-12.71,0-15.2-12.27-15.2-22.42c0-10.21,2.49-22.49,15.2-22.49
		C137.05,390.85,139.54,403.12,139.54,413.28z M113.07,413.28c0,7.6,1.31,19.18,11.27,19.18s11.27-11.58,11.27-19.18
		c0-7.54-1.31-19.12-11.27-19.12S113.07,405.74,113.07,413.28z"/>
	<path class="st1" d="M174.17,434.83h-28.71c0.31-12.96,13.58-16.13,20.99-23.54c2.37-2.43,3.61-4.73,3.61-8.22
		c0-5.67-4.49-8.91-9.78-8.91c-7.16,0-9.97,5.73-9.84,12.15h-3.92c-0.19-8.97,4.49-15.45,13.95-15.45c7.6,0,13.52,4.17,13.52,12.27
		c0,7.29-5.29,11.83-10.96,15.51c-4.24,2.87-12.02,6.73-13.08,12.58h24.23V434.83z"/>
	<path class="st1" d="M185.38,420.94c-0.25,6.91,3.86,11.52,10.9,11.52c5.73,0,11.15-3.43,11.15-9.65c0-6.17-4.67-9.22-10.46-9.22
		h-3.3v-3.3h3.3c4.05,0.06,8.84-2.43,8.84-7.91c0-5.73-4.3-8.22-9.53-8.22c-6.54,0-10.03,4.55-9.9,11.02h-3.92
		c0.06-8.22,5.29-14.33,13.77-14.33c6.85,0,13.52,3.36,13.52,11.09c0,4.73-2.68,8.53-7.35,9.65v0.12c5.67,0.93,8.97,5.04,8.97,10.78
		c0,8.53-6.98,13.27-15.01,13.27c-9.03,0-15.51-5.48-14.89-14.82H185.38z"/>
	<path class="st1" d="M239.26,390.36h4.24v44.47h-4.24V390.36z"/>
	<path class="st1" d="M254.27,390.36h4.73l25.91,37.62h0.12v-37.62h4.24v44.47h-4.73l-25.91-37.62h-0.12v37.62h-4.24V390.36z"/>
	<path class="st1" d="M294.95,390.36h35.25v3.61h-15.51v40.86h-4.24v-40.86h-15.51V390.36z"/>
	<path class="st1" d="M335.94,390.36h30.71v3.61h-26.47v16.07h24.79v3.61h-24.79v17.57h26.78v3.61h-31.02V390.36z"/>
	<path class="st1" d="M374.43,390.36h20.37c7.35,0,13.52,3.55,13.52,11.59c0,5.61-2.93,10.21-8.66,11.34v0.12
		c5.79,0.75,7.47,4.73,7.79,10.03c0.19,3.05,0.19,9.16,2.06,11.4h-4.67c-1.06-1.74-1.06-5.04-1.18-6.91
		c-0.37-6.23-0.87-13.14-8.91-12.83h-16.07v19.75h-4.24V390.36z M378.66,411.47h15.82c5.17,0,9.59-3.24,9.59-8.66
		s-3.24-8.84-9.59-8.84h-15.82V411.47z"/>
	<path class="st1" d="M417.47,390.36h4.73l25.91,37.62h0.12v-37.62h4.24v44.47h-4.73l-25.91-37.62h-0.12v37.62h-4.24V390.36z"/>
	<path class="st1" d="M475.96,390.36h4.73l17.44,44.47h-4.55L488.17,421h-20.24l-5.36,13.83h-4.55L475.96,390.36z M469.23,417.39
		h17.5l-8.6-22.8L469.23,417.39z"/>
	<path class="st1" d="M494.71,390.36h35.25v3.61h-15.51v40.86h-4.24v-40.86h-15.51V390.36z"/>
	<path class="st1" d="M536.01,390.36h4.24v44.47h-4.24V390.36z"/>
	<path class="st1" d="M569.71,389.42c13.95,0,20.93,11.03,20.93,23.17s-6.98,23.17-20.93,23.17c-14.01,0-20.99-11.03-20.99-23.17
		S555.69,389.42,569.71,389.42z M569.71,432.15c11.71,0,16.69-9.84,16.69-19.56s-4.98-19.56-16.69-19.56
		c-11.77,0-16.75,9.84-16.75,19.56S557.93,432.15,569.71,432.15z"/>
	<path class="st1" d="M598.73,390.36h4.73l25.91,37.62h0.12v-37.62h4.24v44.47H629l-25.91-37.62h-0.12v37.62h-4.24V390.36z"/>
	<path class="st1" d="M657.22,390.36h4.73l17.44,44.47h-4.55L669.43,421h-20.24l-5.36,13.83h-4.55L657.22,390.36z M650.49,417.39
		H668l-8.6-22.8L650.49,417.39z"/>
	<path class="st1" d="M685,390.36h4.24v40.86h24.92v3.61H685V390.36z"/>
	<path class="st1" d="M217.59,485.81c-1.5-6.85-7.16-10.78-13.64-10.78c-11.77,0-16.75,9.84-16.75,19.56s4.98,19.56,16.75,19.56
		c8.22,0,13.45-6.35,14.26-14.26h4.24c-1.18,10.9-8.1,17.88-18.5,17.88c-14.01,0-20.99-11.03-20.99-23.17s6.98-23.17,20.99-23.17
		c8.41,0,16.75,5.05,17.88,14.39H217.59z"/>
	<path class="st1" d="M249.11,471.42c13.95,0,20.93,11.03,20.93,23.17s-6.98,23.17-20.93,23.17c-14.01,0-20.99-11.03-20.99-23.17
		S235.09,471.42,249.11,471.42z M249.11,514.15c11.71,0,16.69-9.84,16.69-19.56s-4.98-19.56-16.69-19.56
		c-11.77,0-16.75,9.84-16.75,19.56S237.33,514.15,249.11,514.15z"/>
	<path class="st1" d="M278.13,472.36h4.73l25.91,37.62h0.12v-37.62h4.24v44.47h-4.73l-25.91-37.62h-0.12v37.62h-4.24V472.36z"/>
	<path class="st1" d="M323.6,472.36h28.22v3.61h-23.98v16.07h21.3v3.61h-21.3v21.18h-4.24V472.36z"/>
	<path class="st1" d="M358.61,472.36h30.71v3.61h-26.47v16.07h24.79v3.61h-24.79v17.57h26.78v3.61h-31.02V472.36z"/>
	<path class="st1" d="M397.1,472.36h20.37c7.35,0,13.52,3.55,13.52,11.59c0,5.61-2.93,10.21-8.66,11.34v0.12
		c5.79,0.75,7.47,4.73,7.79,10.03c0.19,3.05,0.19,9.16,2.06,11.4h-4.67c-1.06-1.74-1.06-5.04-1.18-6.91
		c-0.37-6.23-0.87-13.14-8.91-12.83h-16.07v19.75h-4.24V472.36z M401.34,493.47h15.82c5.17,0,9.59-3.24,9.59-8.66
		s-3.24-8.84-9.59-8.84h-15.82V493.47z"/>
	<path class="st1" d="M440.21,472.36h30.71v3.61h-26.47v16.07h24.79v3.61h-24.79v17.57h26.78v3.61h-31.02V472.36z"/>
	<path class="st1" d="M478.64,472.36h4.73l25.91,37.62h0.12v-37.62h4.24v44.47h-4.73L483,479.21h-0.12v37.62h-4.24V472.36z"/>
	<path class="st1" d="M556.62,485.81c-1.5-6.85-7.16-10.78-13.64-10.78c-11.77,0-16.75,9.84-16.75,19.56s4.98,19.56,16.75,19.56
		c8.22,0,13.45-6.35,14.26-14.26h4.24c-1.18,10.9-8.1,17.88-18.5,17.88c-14.01,0-20.99-11.03-20.99-23.17s6.98-23.17,20.99-23.17
		c8.41,0,16.75,5.05,17.88,14.39H556.62z"/>
	<path class="st1" d="M569.52,472.36h30.71v3.61h-26.47v16.07h24.79v3.61h-24.79v17.57h26.78v3.61h-31.02V472.36z"/>
	<path class="st1" d="M645.51,471.42c13.95,0,20.93,11.03,20.93,23.17s-6.98,23.17-20.93,23.17c-14.01,0-20.99-11.03-20.99-23.17
		S631.5,471.42,645.51,471.42z M645.51,514.15c11.71,0,16.69-9.84,16.69-19.56s-4.98-19.56-16.69-19.56
		c-11.77,0-16.75,9.84-16.75,19.56S633.74,514.15,645.51,514.15z"/>
	<path class="st1" d="M674.54,472.36h4.73l25.91,37.62h0.12v-37.62h4.24v44.47h-4.73l-25.91-37.62h-0.12v37.62h-4.24V472.36z"/>
	<path class="st1" d="M195.41,567.81c-1.5-6.85-7.16-10.78-13.64-10.78c-11.77,0-16.75,9.84-16.75,19.56s4.98,19.56,16.75,19.56
		c8.22,0,13.45-6.35,14.26-14.26h4.24c-1.18,10.9-8.1,17.88-18.5,17.88c-14.01,0-20.99-11.03-20.99-23.17s6.98-23.17,20.99-23.17
		c8.41,0,16.75,5.05,17.88,14.39H195.41z"/>
	<path class="st1" d="M226.93,553.42c13.95,0,20.93,11.03,20.93,23.17s-6.98,23.17-20.93,23.17c-14.01,0-20.99-11.03-20.99-23.17
		S212.92,553.42,226.93,553.42z M226.93,596.15c11.71,0,16.69-9.84,16.69-19.56s-4.98-19.56-16.69-19.56
		c-11.77,0-16.75,9.84-16.75,19.56S215.16,596.15,226.93,596.15z"/>
	<path class="st1" d="M255.9,554.36h6.23l15.38,38.99l15.32-38.99h6.23v44.47h-4.24V560.4h-0.12l-15.2,38.43h-3.99l-15.26-38.43
		h-0.12v38.43h-4.24V554.36z"/>
	<path class="st1" d="M309.46,554.36h19.75c7.97,0,13.21,4.67,13.21,12.71c0,8.03-5.23,12.71-13.21,12.71H313.7v19.06h-4.24V554.36z
		 M313.7,576.16h14.58c5.86,0,9.9-2.99,9.9-9.09c0-6.1-4.05-9.09-9.9-9.09H313.7V576.16z"/>
	<path class="st1" d="M349.83,554.36h4.24v27.53c-0.06,10.34,4.86,14.26,13.02,14.26c8.22,0,13.14-3.92,13.08-14.26v-27.53h4.24
		v28.46c0,9.16-4.92,16.94-17.32,16.94c-12.33,0-17.25-7.79-17.25-16.94V554.36z"/>
	<path class="st1" d="M389.69,554.36h35.25v3.61h-15.51v40.86h-4.24v-40.86h-15.51V554.36z"/>
	<path class="st1" d="M430.68,554.36h30.71v3.61h-26.47v16.07h24.79v3.61h-24.79v17.57h26.78v3.61h-31.02V554.36z"/>
	<path class="st1" d="M469.17,554.36h20.37c7.35,0,13.52,3.55,13.52,11.59c0,5.61-2.93,10.21-8.66,11.34v0.12
		c5.79,0.75,7.47,4.73,7.79,10.03c0.19,3.05,0.19,9.16,2.06,11.4h-4.67c-1.06-1.74-1.06-5.04-1.18-6.91
		c-0.37-6.23-0.87-13.14-8.91-12.83h-16.07v19.75h-4.24V554.36z M473.41,575.47h15.82c5.17,0,9.59-3.24,9.59-8.66
		s-3.24-8.84-9.59-8.84h-15.82V575.47z"/>
	<path class="st1" d="M511.53,583.51v-3.61h15.57v3.61H511.53z"/>
	<path class="st1" d="M549.9,554.36h4.73l17.44,44.47h-4.55L562.11,585h-20.24l-5.36,13.83h-4.55L549.9,554.36z M543.17,581.39h17.5
		l-8.6-22.8L543.17,581.39z"/>
	<path class="st1" d="M577.99,554.36h4.24v44.47h-4.24V554.36z"/>
	<path class="st1" d="M593.06,554.36h15.38c13.39,0.31,20.43,7.66,20.43,22.24s-7.04,21.92-20.43,22.24h-15.38V554.36z
		 M597.3,595.22h9.03c12.77,0.06,18.31-5.36,18.31-18.62c0-13.27-5.54-18.69-18.31-18.62h-9.03V595.22z"/>
	<path class="st1" d="M637.29,554.36H668v3.61h-26.47v16.07h24.79v3.61h-24.79v17.57h26.78v3.61h-31.02V554.36z"/>
	<path class="st1" d="M675.78,554.36h15.38c13.39,0.31,20.43,7.66,20.43,22.24s-7.04,21.92-20.43,22.24h-15.38V554.36z
		 M680.02,595.22h9.03c12.77,0.06,18.31-5.36,18.31-18.62c0-13.27-5.54-18.69-18.31-18.62h-9.03V595.22z"/>
	<path class="st1" d="M487.98,636.36h15.38c13.39,0.31,20.43,7.66,20.43,22.24s-7.04,21.92-20.43,22.24h-15.38V636.36z
		 M492.22,677.22h9.03c12.77,0.06,18.31-5.36,18.31-18.62c0-13.27-5.54-18.69-18.31-18.62h-9.03V677.22z"/>
	<path class="st1" d="M532.21,636.36h30.71v3.61h-26.47v16.07h24.79v3.61h-24.79v17.57h26.78v3.61h-31.02V636.36z"/>
	<path class="st1" d="M572.7,666.19c-0.19,9.16,6.42,11.96,14.51,11.96c4.67,0,11.77-2.55,11.77-9.03c0-5.04-5.04-7.04-9.16-8.04
		l-9.9-2.43c-5.23-1.31-10.03-3.8-10.03-10.71c0-4.36,2.8-12.52,15.32-12.52c8.78,0,16.51,4.73,16.44,13.83h-4.24
		c-0.25-6.79-5.85-10.21-12.15-10.21c-5.79,0-11.15,2.24-11.15,8.84c0,4.17,3.11,5.92,6.73,6.79l10.84,2.68
		c6.29,1.68,11.52,4.42,11.52,11.71c0,3.05-1.25,12.71-17,12.71c-10.53,0-18.25-4.73-17.75-15.57H572.7z"/>
	<path class="st1" d="M611.81,636.36h4.24v44.47h-4.24V636.36z"/>
	<path class="st1" d="M664.88,680.83h-3.05l-0.56-8.1h-0.12c-2.99,6.35-8.97,9.03-15.38,9.03c-14.01,0-20.99-11.03-20.99-23.17
		s6.98-23.17,20.99-23.17c9.34,0,16.94,5.05,18.56,14.76h-4.24c-0.56-5.11-5.86-11.15-14.33-11.15c-11.77,0-16.75,9.84-16.75,19.56
		s4.98,19.56,16.75,19.56c9.84,0,15.57-6.91,15.38-16.32h-15.14v-3.61h18.87V680.83z"/>
	<path class="st1" d="M674.54,636.36h4.73l25.91,37.62h0.12v-37.62h4.24v44.47h-4.73l-25.91-37.62h-0.12v37.62h-4.24V636.36z"/>
</g>
<g>
	<path class="st2" d="M275.55,267.04h5.52l-8.71,41.46h-5.52L275.55,267.04z"/>
	<path class="st2" d="M290.65,267.04h28.56l-0.93,4.65h-23.05l-2.79,13.18h21.48l-0.93,4.64h-21.54l-3.02,14.34h23.34l-1.04,4.64
		h-28.86L290.65,267.04z"/>
	<path class="st2" d="M326.13,267.04h28.56l-0.93,4.65h-23.05l-2.79,13.18h21.48l-0.93,4.64h-21.54l-3.02,14.34h23.34l-1.04,4.64
		h-28.86L326.13,267.04z"/>
	<path class="st2" d="M361.61,267.04h28.56l-0.93,4.65h-23.05l-2.79,13.18h21.48l-0.93,4.64h-21.54l-3.02,14.34h23.34l-1.04,4.64
		h-28.86L361.61,267.04z"/>
	<path class="st2" d="M404.05,266.05h4.24l-17.19,43.43h-4.24L404.05,266.05z"/>
	<path class="st2" d="M429.02,267.04h6.04l7.49,41.46h-5.69l-1.92-12.48h-17.47l-7.26,12.48h-6.15L429.02,267.04z M419.96,291.37
		h14.28l-3.08-19.45h-0.12L419.96,291.37z"/>
	<path class="st2" d="M484.3,294.5c-2.09,9.29-8.13,14.98-18.35,14.98c-11.32,0-17.77-6.74-17.77-18.17
		c0-13.41,8.59-25.26,22.76-25.26c8.94,0,15.79,4.76,15.79,14.34h-5.52c0-6.5-4.24-9.7-10.28-9.7c-11.55,0-17.24,10.62-17.24,20.61
		c0,8.01,3.95,13.53,12.25,13.53c6.79,0,11.03-3.89,12.83-10.33H484.3z"/>
	<path class="st2" d="M497.02,267.04h7.66l5.52,35.65h0.12l20.5-35.65h7.66l-8.77,41.46h-5.28l8.48-36.29h-0.12l-21.13,36.29h-5.28
		l-5.4-36.29h-0.12l-7.26,36.29h-5.28L497.02,267.04z"/>
</g>
<g>
	<path class="st3" d="M342.01,811.63v-95.87l4.58,0.67c13.65,2,27.33,3.56,41.04,4.76l-11.96-30.08H258.52l38.43,60.26l-38.43,60.26
		H342.01z"/>
</g>
<g>
	<path class="st4" d="M919.63,848.06c-191.21-28.08-382.41,28.08-573.62,0c0-42.55,0-85.11,0-127.66
		c191.21,28.09,382.41-28.09,573.62,0C919.63,762.95,919.63,805.5,919.63,848.06z"/>
</g>
<g>
	<path class="st3" d="M1007.8,691.12H890.65l-8.28,20.83c12.63,1.17,25.25,2.64,37.84,4.49l3.42,0.5v94.69h84.17l-38.43-60.26
		L1007.8,691.12z"/>
</g>
<g>
	<path class="st5" d="M455.81,800.4l-6.47,0.11c0.09,5.38,0.26,10.08,0.44,15.79l-6.47,0.11c0.07-5.46-0.01-10.17-0.11-15.79
		l-24.53,0.43l-0.73-3.18c6.38-9.77,19.14-29.91,25.18-39.59l5.46-0.1c0.11,11.09,0.32,18.56,0.65,37.46l7.39-0.13L455.81,800.4z
		 M442.62,767.02c-0.48,1.18-1.29,2.79-2.44,4.66l-14.87,24.37l17.81-0.31l-0.41-23.18c-0.03-1.93,0.1-3.7,0.16-5.55L442.62,767.02z
		"/>
	<path class="st5" d="M494.29,815.52l-34.94,0.61l-0.83-4.35c3.79-4.02,11.87-13.31,17.79-20.47c8.23-9.89,9.58-14.36,9.51-18.06
		c-0.1-5.71-3.53-9.77-10.17-9.65c-4.62,0.08-9.03,2.34-12.82,6.69l-1.62-6.19c4.88-4.2,9.89-6.05,15.69-6.16
		c9.74-0.17,15.39,5.53,15.55,14.68c0.09,5.04-2.49,11.3-10.07,20.09c-3.46,4.01-10.54,12.2-15.4,17.74l11.25-0.2
		c6.72-0.12,13.77-0.49,16.29-0.7L494.29,815.52z"/>
	<path class="st5" d="M530.58,814.89c0.03-3.34,0.04-7.57-0.06-13.29l-0.18-10.38c-0.15-8.62-2.53-13.69-9.48-13.56
		c-3.96,0.07-7.88,2.25-11.66,7.77l0.52,29.83l-7.21,0.13c0.01-4.75,0.1-9.33-0.03-17.07l-0.18-10.38
		c-0.1-5.89-0.26-10.12-0.52-14.69l7.21-0.57l0.12,6.77c3.79-4.64,8.23-7.62,13.95-7.72c9.06-0.16,14,5.56,14.2,16.92l0.2,11.53
		c0.09,5.1,0.18,10.38,0.43,14.6L530.58,814.89z"/>
	<path class="st5" d="M577.49,814.07l-0.07-4.05c-3.29,3.05-6.69,5.13-12.41,5.23c-9.41,0.16-18.94-5.92-19.22-21.84
		c-0.23-13.02,8.59-22.24,20.47-22.45c3.43-0.06,7.49,0.66,10.51,2.37c-0.22-12.41-0.35-19.8-0.56-22.17l7.3-0.39
		c-0.02,3.96,0.06,13.38,0.31,27.81l0.31,17.68c0.17,9.5,0.33,13.9,0.57,17.68L577.49,814.07z M576.89,779.67
		c-2.5-2.24-5.25-3.25-10.35-3.16c-6.86,0.12-13.81,5.61-13.62,16.61c0.17,9.77,4.6,16.55,13.58,16.4
		c4.05-0.07,7.54-1.89,10.82-5.21L576.89,779.67z"/>
	<path class="st5" d="M650.37,812.8l-30.57,0.53c0.1-4.03,0.15-10.42-0.04-21.25l-0.27-15.2c-0.2-11.51-0.39-17.3-0.61-20.41
		l29.06-0.51l0.36,5.96c-3.28-0.03-6.81-0.13-13.86-0.01l-8.48,0.15l0.34,19.65l8.99-0.16c3.78-0.07,7.48-0.13,11.84-0.38l-0.15,5.8
		c-3.78,0.07-7.22,0.04-11.42,0.12l-9.15,0.16l0.35,20.33l9.74-0.17c6.89-0.12,10.58-0.44,14.02-0.67L650.37,812.8z"/>
	<path class="st5" d="M684.52,812.2l-0.07-3.86c-3.14,2.91-6.38,4.9-11.84,5c-8.99,0.16-18.08-5.65-18.34-20.85
		c-0.22-12.43,8.2-21.23,19.54-21.43c3.28-0.06,7.15,0.63,10.04,2.26c-0.21-11.84-0.33-18.9-0.54-21.16l6.97-0.37
		c-0.02,3.78,0.05,12.77,0.29,26.54l0.29,16.88c0.16,9.07,0.32,13.27,0.55,16.88L684.52,812.2z M683.94,779.36
		c-2.39-2.14-5.01-3.1-9.88-3.02c-6.55,0.11-13.18,5.35-13,15.85c0.16,9.32,4.39,15.8,12.96,15.65c3.86-0.07,7.19-1.81,10.33-4.97
		L683.94,779.36z"/>
	<path class="st5" d="M704.85,761.61c-2.44,0.04-4.23-1.44-4.27-3.79c-0.04-2.44,1.53-3.98,4.13-4.02c2.35-0.04,4.14,1.27,4.18,3.88
		C708.95,760.19,707.12,761.57,704.85,761.61z M702.29,811.89c0.03-3.02,0.01-9.16-0.12-16.55l-0.15-8.57
		c-0.12-6.89-0.28-11.34-0.52-15.2l6.97-0.46c0.09,5.29,0.06,8.4,0.19,15.46l0.15,8.48c0.13,7.73,0.24,13.69,0.38,16.71
		L702.29,811.89z"/>
	<path class="st5" d="M738,775.73l-9.91,0.17c0.11,6.22,0.28,15.79,0.4,23.18c0.11,6.47,3.08,8.1,6.11,8.04
		c1.68-0.03,3.18-0.64,4.42-1.59l0.09,5.29c-1.83,0.87-4.34,1.5-7.11,1.55c-5.71,0.1-9.96-2.93-10.12-11.92
		c-0.13-7.56-0.04-16.47-0.34-24.44l-6.63,0.12l0.75-4.89l5.79-0.1l-0.17-9.57l6.52-1.96l0.2,11.42l10.67-0.19L738,775.73z"/>
	<path class="st5" d="M748.28,760.85c-2.44,0.04-4.23-1.44-4.27-3.79c-0.04-2.44,1.53-3.98,4.13-4.02c2.35-0.04,4.14,1.27,4.18,3.88
		C752.37,759.43,750.54,760.81,748.28,760.85z M745.71,811.13c0.03-3.03,0.01-9.16-0.12-16.55l-0.15-8.57
		c-0.12-6.89-0.28-11.34-0.52-15.2l6.97-0.46c0.09,5.29,0.06,8.4,0.19,15.46l0.15,8.48c0.13,7.73,0.24,13.69,0.38,16.71
		L745.71,811.13z"/>
	<path class="st5" d="M780.5,811.62c-11.25,0.2-19.71-7.72-19.93-20.24c-0.24-13.86,8.6-22.16,20.61-22.37
		c11.51-0.2,19.29,7.56,19.51,20.49C800.93,802.94,792.42,811.41,780.5,811.62z M780.6,774.4c-7.05,0.12-13.42,5.95-13.24,16.36
		c0.17,9.66,5.48,15.7,13.63,15.56c7.48-0.13,13.08-6.11,12.91-16.19C793.71,779.21,787.66,774.28,780.6,774.4z"/>
	<path class="st5" d="M836.14,809.55c0.03-3.19,0.04-7.23-0.05-12.68l-0.17-9.91c-0.14-8.23-2.41-13.06-9.05-12.95
		c-3.78,0.07-7.52,2.15-11.13,7.42l0.5,28.47l-6.89,0.12c0-4.54,0.1-8.91-0.03-16.3l-0.17-9.91c-0.1-5.63-0.25-9.66-0.5-14.02
		l6.88-0.54l0.11,6.47c3.62-4.43,7.85-7.28,13.31-7.37c8.65-0.15,13.37,5.31,13.56,16.15l0.19,11c0.08,4.87,0.17,9.91,0.41,13.94
		L836.14,809.55z"/>
</g>
<g>
	<defs>
		<polygon id="SVGID_1_" points="866.98,694.68 890.65,691.12 1007.8,691.12 969.37,751.38 1007.8,811.63 1234.12,811.63 1234.12,0 
			142.12,0 142.12,272.16 		"/>
	</defs>
	<clipPath id="SVGID_00000077284319748502352810000002412039779031712166_">
		<use xlink:href="#SVGID_1_"  style="overflow:visible;"/>
	</clipPath>
	
		<linearGradient id="SVGID_00000134236242976727825950000011304815963069709456_" gradientUnits="userSpaceOnUse" x1="142.1189" y1="451.2509" x2="1184.587" y2="451.2509">
		<stop  offset="0.1257" style="stop-color:#487692;stop-opacity:0"/>
		<stop  offset="1" style="stop-color:#487692"/>
	</linearGradient>
	
		<path style="opacity:0.6;clip-path:url(#SVGID_00000077284319748502352810000002412039779031712166_);fill:url(#SVGID_00000134236242976727825950000011304815963069709456_);" d="
		M656.48,4.31c-250.32,0-459.96,147.4-514.36,345.23C197.18,197.37,372.66,86.09,580.64,86.09c252.1,0,456.47,163.49,456.47,365.16
		c0,201.67-204.37,365.16-456.47,365.16c-207.98,0-383.47-111.27-438.52-263.45c54.4,197.84,264.04,345.23,514.36,345.23
		c291.66,0,528.1-200.1,528.1-446.94C1184.59,204.42,948.15,4.31,656.48,4.31z"/>
	
		<linearGradient id="SVGID_00000089534454526095601070000010383080001191868564_" gradientUnits="userSpaceOnUse" x1="413.3707" y1="464.1319" x2="1200.775" y2="462.6">
		<stop  offset="0.1257" style="stop-color:#487692;stop-opacity:0"/>
		<stop  offset="1" style="stop-color:#487692"/>
	</linearGradient>
	
		<path style="opacity:0.6;clip-path:url(#SVGID_00000077284319748502352810000002412039779031712166_);fill:url(#SVGID_00000089534454526095601070000010383080001191868564_);" d="
		M682.6,53.82c-261.42,0-480.35,135.15-537.17,316.54C202.94,230.83,386.2,128.8,603.4,128.8c263.28,0,476.71,149.9,476.71,334.81
		c0,184.91-213.43,334.8-476.71,334.8c-217.2,0-400.46-102.02-457.96-241.56C202.25,738.25,421.18,873.4,682.6,873.4
		c304.59,0,551.51-183.47,551.51-409.79C1234.12,237.29,987.2,53.82,682.6,53.82z"/>
	
		<linearGradient id="SVGID_00000137854432516937609790000009366581837131333565_" gradientUnits="userSpaceOnUse" x1="326.204" y1="469.4933" x2="1414.8849" y2="469.4933">
		<stop  offset="0.1257" style="stop-color:#487692;stop-opacity:0"/>
		<stop  offset="1" style="stop-color:#487692"/>
	</linearGradient>
	
		<path style="opacity:0.6;clip-path:url(#SVGID_00000077284319748502352810000002412039779031712166_);fill:url(#SVGID_00000137854432516937609790000009366581837131333565_);" d="
		M682.6,118.16c-261.42,0-480.35,115.87-537.17,271.38c57.5-119.63,240.76-207.1,457.96-207.1c263.28,0,476.71,128.51,476.71,287.05
		c0,158.53-213.43,287.05-476.71,287.05c-217.2,0-400.46-87.47-457.96-207.1c56.81,155.52,275.75,271.38,537.17,271.38
		c304.59,0,551.51-157.3,551.51-351.33C1234.12,275.46,987.2,118.16,682.6,118.16z"/>
	
		<linearGradient id="SVGID_00000005232409021844216020000007964720781005879424_" gradientUnits="userSpaceOnUse" x1="378.2892" y1="445.0213" x2="1393.1827" y2="445.0213">
		<stop  offset="0.1257" style="stop-color:#487692;stop-opacity:0"/>
		<stop  offset="1" style="stop-color:#487692"/>
	</linearGradient>
	
		<path style="opacity:0.6;clip-path:url(#SVGID_00000077284319748502352810000002412039779031712166_);fill:url(#SVGID_00000005232409021844216020000007964720781005879424_);" d="
		M693.69,0c-243.7,0-447.8,146.77-500.76,343.75c53.6-151.53,224.44-262.32,426.92-262.32c245.43,0,444.4,162.79,444.4,363.59
		c0,200.81-198.96,363.59-444.4,363.59c-202.48,0-373.32-110.79-426.92-262.33c52.96,196.99,257.06,343.75,500.76,343.75
		c283.95,0,514.13-199.24,514.13-445.02C1207.82,199.24,977.64,0,693.69,0z"/>
</g>
</svg>
